<svg xmlns="http://www.w3.org/2000/svg" xmlns:xlink="http://www.w3.org/1999/xlink"><symbol fill="currentColor" viewBox="0 0 18 18" id="add"><path d="M1 9h16M9 1v16" stroke="#fff" stroke-width="2" stroke-linecap="round"/></symbol><symbol fill="currentColor" viewBox="0 0 18 18" id="close"><path d="m1 1 16 16m0-16L1 17" stroke="#fff" stroke-width="2" stroke-linecap="round"/></symbol><symbol fill="currentColor" viewBox="0 0 18 16" id="email"><rect x="1" y="1" width="16" height="14" rx="3" stroke="#B1C909" stroke-width="2"/><path d="m4 5 3.75 3a2 2 0 0 0 2.5 0L14 5" stroke="#B1C909" stroke-width="2"/></symbol><symbol fill="currentColor" viewBox="0 0 18 20" id="lock"><rect x="1" y="8.5" width="16" height="10" rx="2" stroke="#B1C909" stroke-width="2"/><circle cx="9" cy="13.5" r="2" stroke="#B1C909" stroke-width="2"/><path d="M4 4.5a3 3 0 0 1 3-3h4a3 3 0 0 1 3 3v4H4v-4Z" stroke="#B1C909" stroke-width="2"/></symbol><symbol fill="currentColor" viewBox="0 0 34 34" id="login"><path d="M6.308 4.545a1 1 0 1 0 1.384 1.443L6.308 4.545Zm1.384 23.467a1 1 0 0 0-1.384 1.443l1.384-1.443ZM1 16a1 1 0 1 0 0 2v-2Zm22 1 .707.707a1 1 0 0 0 0-1.414L23 17Zm-6.707 5.293a1 1 0 0 0 1.414 1.414l-1.414-1.414Zm1.414-12a1 1 0 1 0-1.414 1.414l1.414-1.414ZM32 17c0 8.316-6.513 15-14.477 15v2C26.653 34 34 26.357 34 17h-2ZM17.523 2C25.487 2 32 8.684 32 17h2c0-9.357-7.346-17-16.477-17v2Zm-9.83 3.988C10.277 3.508 13.731 2 17.522 2V0C13.187 0 9.245 1.729 6.308 4.545l1.384 1.443ZM17.522 32c-3.791 0-7.245-1.509-9.83-3.988l-1.385 1.443C9.245 32.271 13.187 34 17.523 34v-2ZM1 18h22v-2H1v2Zm21.293-1.707-6 6 1.414 1.414 6-6-1.414-1.414Zm1.414 0-6-6-1.414 1.414 6 6 1.414-1.414Z"/></symbol><symbol fill="currentColor" viewBox="0 0 219 50" id="logo"><path d="M15.319 23.663a2 2 0 1 0 1.035 3.862l20.242-5.422a2 2 0 1 0-1.035-3.863L15.32 23.663ZM15.63 32.55a2 2 0 0 1 1.414-2.448l20.243-5.423a2 2 0 0 1 1.035 3.863L18.08 33.965a2 2 0 0 1-2.45-1.414ZM24.29 35.062a2 2 0 1 0 1.036 3.863l9.201-2.465a2 2 0 1 0-1.035-3.863l-9.201 2.465Z"/><path fill-rule="evenodd" clip-rule="evenodd" d="M46.068 9.608 26.728 0 5.93 5.57a7.998 7.998 0 0 0-5.656 9.796L7.968 44.07a8 8 0 0 0 9.798 5.655l28.71-7.69a7.998 7.998 0 0 0 5.657-9.796l-6.065-22.63ZM6.967 9.434 25.83 4.38l1.628 6.073a6 6 0 0 0 7.348 4.242l7.915-2.12 5.548 20.699a3.999 3.999 0 0 1-2.829 4.898l-28.71 7.69a4 4 0 0 1-4.9-2.827L4.138 14.331a3.999 3.999 0 0 1 2.829-4.897Zm23.53-3.096 7.024 3.49-3.749 1.004a2 2 0 0 1-2.45-1.414l-.825-3.08Z"/><path d="M210.161 35.413c-1.43 0-2.827-.17-4.192-.511-1.366-.363-2.454-.811-3.264-1.344l1.664-3.583c.768.49 1.696.895 2.784 1.215 1.088.299 2.154.448 3.2.448 2.112 0 3.168-.522 3.168-1.567 0-.49-.288-.843-.864-1.056-.576-.213-1.462-.395-2.656-.544-1.408-.213-2.571-.458-3.488-.736a5.516 5.516 0 0 1-2.4-1.471c-.662-.704-.992-1.707-.992-3.008 0-1.087.309-2.047.928-2.879.64-.853 1.557-1.514 2.752-1.983 1.216-.47 2.645-.704 4.288-.704 1.216 0 2.421.138 3.616.416 1.216.256 2.218.618 3.008 1.087l-1.664 3.552c-1.515-.854-3.168-1.28-4.96-1.28-1.067 0-1.867.15-2.4.448-.534.298-.8.682-.8 1.151 0 .534.288.907.864 1.12.576.213 1.493.416 2.752.608 1.408.235 2.56.49 3.456.768a5.073 5.073 0 0 1 2.336 1.44c.661.703.992 1.684.992 2.943 0 1.066-.32 2.015-.96 2.847-.64.832-1.579 1.482-2.816 1.952-1.216.447-2.667.671-4.352.671ZM192.853 31.414c.896 0 1.685-.128 2.368-.384a5.945 5.945 0 0 0 1.952-1.28l2.656 2.88c-1.621 1.856-3.989 2.783-7.104 2.783-1.941 0-3.659-.373-5.152-1.12-1.493-.767-2.645-1.823-3.456-3.167-.811-1.343-1.216-2.868-1.216-4.574 0-1.685.395-3.2 1.184-4.543a8.4 8.4 0 0 1 3.296-3.167c1.408-.768 2.987-1.152 4.736-1.152 1.643 0 3.136.352 4.48 1.056 1.344.682 2.411 1.684 3.2 3.007.811 1.3 1.216 2.847 1.216 4.639l-12.736 2.463c.363.853.928 1.493 1.696 1.92.789.426 1.749.64 2.88.64Zm-.736-9.95c-1.259 0-2.283.406-3.072 1.217-.789.81-1.205 1.93-1.248 3.359l8.384-1.632c-.235-.896-.715-1.61-1.44-2.143-.725-.534-1.6-.8-2.624-.8ZM181.893 34.326c-.491.362-1.099.64-1.824.831-.704.171-1.44.256-2.208.256-2.07 0-3.659-.522-4.768-1.567-1.11-1.045-1.664-2.58-1.664-4.607v-15.1h4.992v4.19h4.256v3.84h-4.256v7.006c0 .725.181 1.29.544 1.695.362.384.885.576 1.568.576.768 0 1.45-.213 2.048-.64l1.312 3.52ZM158.748 35.413c-1.813 0-3.445-.373-4.896-1.12-1.429-.767-2.549-1.823-3.36-3.167-.811-1.343-1.216-2.868-1.216-4.574 0-1.707.405-3.232 1.216-4.575.811-1.344 1.931-2.389 3.36-3.135 1.451-.768 3.083-1.152 4.896-1.152 1.813 0 3.435.384 4.864 1.152 1.429.746 2.549 1.791 3.36 3.135.811 1.343 1.216 2.868 1.216 4.575 0 1.706-.405 3.23-1.216 4.574-.811 1.344-1.931 2.4-3.36 3.168-1.429.746-3.051 1.12-4.864 1.12Zm0-4.095c1.28 0 2.325-.426 3.136-1.28.832-.874 1.248-2.036 1.248-3.486 0-1.45-.416-2.602-1.248-3.456-.811-.874-1.856-1.311-3.136-1.311s-2.336.437-3.168 1.311c-.832.854-1.248 2.005-1.248 3.456 0 1.45.416 2.612 1.248 3.487.832.853 1.888 1.28 3.168 1.28ZM137.311 12.38c2.667 0 4.747.842 6.24 2.527 1.494 1.663 2.24 4.041 2.24 7.134v13.116h-5.184V22.201c0-1.792-.426-3.136-1.28-4.031-.832-.917-1.994-1.376-3.488-1.376-1.578 0-2.848.49-3.808 1.472-.938.96-1.408 2.388-1.408 4.287v12.604h-5.184V12.763h5.024v2.72a7.208 7.208 0 0 1 2.88-2.304c1.152-.533 2.475-.8 3.968-.8ZM120.463 17.946v14.332c0 3.157-.8 5.503-2.4 7.038-1.6 1.536-3.926 2.304-6.976 2.304-1.622 0-3.158-.203-4.608-.608-1.43-.405-2.635-.992-3.616-1.76l1.984-3.583c.725.598 1.61 1.067 2.656 1.408 1.045.341 2.101.512 3.168.512 1.664 0 2.88-.384 3.648-1.152.768-.768 1.152-1.94 1.152-3.519v-.576a6.535 6.535 0 0 1-2.272 1.472 7.684 7.684 0 0 1-2.816.512c-2.262 0-4.054-.64-5.376-1.92-1.323-1.3-1.984-3.242-1.984-5.822v-8.638h4.992v7.902c0 2.794 1.162 4.19 3.488 4.19 1.194 0 2.154-.383 2.88-1.151.725-.79 1.088-1.951 1.088-3.487v-7.454h4.992ZM89.976 12.38c2.645 0 4.704.778 6.176 2.335 1.472 1.535 2.208 3.764 2.208 6.686v13.756h-5.184V21.561c0-1.578-.416-2.762-1.248-3.551-.81-.81-1.888-1.216-3.232-1.216-1.472 0-2.645.427-3.52 1.28-.875.832-1.312 2.1-1.312 3.807v13.276H78.68V21.561c0-1.578-.384-2.762-1.152-3.551-.768-.81-1.813-1.216-3.136-1.216-1.45 0-2.613.427-3.488 1.28-.875.832-1.312 2.1-1.312 3.807v13.276h-5.184V12.763h5.024v2.751a6.66 6.66 0 0 1 2.72-2.303c1.13-.555 2.432-.832 3.904-.832 1.536 0 2.88.288 4.032.864 1.152.554 2.037 1.365 2.656 2.431a7.324 7.324 0 0 1 3.008-2.431c1.259-.576 2.667-.864 4.224-.864Z"/></symbol><symbol fill="currentColor" viewBox="0 0 18 16" id="off-password"><path d="M17 8c0 1.155-.78 2.65-2.277 3.9C13.253 13.129 11.226 14 9 14s-4.254-.872-5.723-2.1C1.78 10.65 1 9.156 1 8c0-1.155.78-2.65 2.277-3.9C4.747 2.871 6.774 2 9 2s4.254.872 5.723 2.1C16.22 5.35 17 6.844 17 8Z" stroke="#B1C909" stroke-width="2"/><circle cx="9" cy="8" r="3" stroke="#B1C909" stroke-width="2"/><path d="m2 1 14 14" stroke="#B1C909" stroke-width="2"/></symbol><symbol fill="currentColor" viewBox="0 0 18 14" id="password"><path d="M17 7c0 1.155-.78 2.65-2.277 3.9C13.253 12.129 11.226 13 9 13s-4.254-.872-5.723-2.1C1.78 9.65 1 8.156 1 7c0-1.155.78-2.65 2.277-3.9C4.747 1.871 6.774 1 9 1s4.254.872 5.723 2.1C16.22 4.35 17 5.844 17 7Z" stroke="#B1C909" stroke-width="2"/><circle cx="9" cy="7" r="3" stroke="#B1C909" stroke-width="2"/></symbol><symbol fill="currentColor" viewBox="0 0 22 28" id="user"><circle cx="11" cy="6" r="5" stroke="#fff" stroke-width="2"/><path d="M21 28v-8a4 4 0 0 0-4-4H5a4 4 0 0 0-4 4v8" stroke="#fff" stroke-width="2"/></symbol><symbol class="jiconify jiconify--logos" viewBox="0 0 256 257" fill="currentColor" id="vite"><defs><linearGradient id="ja" x1="-.828%" x2="57.636%" y1="7.652%" y2="78.411%"><stop offset="0%" stop-color="#41D1FF"/><stop offset="100%" stop-color="#BD34FE"/></linearGradient><linearGradient id="jb" x1="43.376%" x2="50.316%" y1="2.242%" y2="89.03%"><stop offset="0%" stop-color="#FFEA83"/><stop offset="8.333%" stop-color="#FFDD35"/><stop offset="100%" stop-color="#FFA800"/></linearGradient></defs><path d="M255.153 37.938 134.897 252.976c-2.483 4.44-8.862 4.466-11.382.048L.875 37.958c-2.746-4.814 1.371-10.646 6.827-9.67l120.385 21.517a6.537 6.537 0 0 0 2.322-.004l117.867-21.483c5.438-.991 9.574 4.796 6.877 9.62Z"/><path d="M185.432.063 96.44 17.501a3.268 3.268 0 0 0-2.634 3.014l-5.474 92.456a3.268 3.268 0 0 0 3.997 3.378l24.777-5.718c2.318-.535 4.413 1.507 3.936 3.838l-7.361 36.047c-.495 2.426 1.782 4.5 4.151 3.78l15.304-4.649c2.372-.72 4.652 1.36 4.15 3.788l-11.698 56.621c-.732 3.542 3.979 5.473 5.943 2.437l1.313-2.028 72.516-144.72c1.215-2.423-.88-5.186-3.54-4.672l-25.505 4.922c-2.396.462-4.435-1.77-3.759-4.114l16.646-57.705c.677-2.35-1.37-4.583-3.769-4.113Z"/></symbol><symbol class="kiconify kiconify--logos" viewBox="0 0 256 198" fill="currentColor" id="vue"><path d="M204.8 0H256L128 220.8 0 0h97.92L128 51.2 157.44 0h47.36Z"/><path d="m0 0 128 220.8L256 0h-51.2L128 132.48 50.56 0H0Z"/><path d="M50.56 0 128 133.12 204.8 0h-47.36L128 51.2 97.92 0H50.56Z"/></symbol></svg>